<?xml version="1.0" encoding="utf-8"?>
<svg viewBox="0 0 18 19" xmlns="http://www.w3.org/2000/svg">
  <path d="M 16.127 10.794 L 16.127 3.554 L 16.578 3.554 C 16.802 3.554 16.971 3.366 16.971 3.159 C 16.971 2.954 16.783 2.766 16.578 2.766 L 1.364 2.766 C 1.14 2.766 0.971 2.954 0.971 3.159 C 0.971 3.366 1.159 3.554 1.364 3.554 L 1.89 3.554 L 1.89 10.794 C 1.89 11.301 2.303 11.731 2.828 11.731 L 15.208 11.731 C 15.714 11.713 16.127 11.301 16.127 10.794 Z M 2.678 10.794 L 2.678 3.554 L 15.32 3.554 L 15.32 10.794 C 15.32 10.869 15.264 10.925 15.19 10.925 L 2.81 10.925 C 2.752 10.925 2.678 10.869 2.678 10.794 Z M 8.774 17.143 L 8.774 15.755 L 7.104 17.425 C 7.03 17.499 6.918 17.537 6.823 17.537 C 6.73 17.537 6.616 17.499 6.542 17.425 C 6.392 17.274 6.392 17.011 6.542 16.862 L 8.774 14.629 L 8.774 13.898 L 7.686 13.898 C 7.462 13.898 7.292 13.71 7.292 13.503 C 7.292 13.279 7.48 13.11 7.686 13.11 L 10.612 13.11 C 10.838 13.11 11.006 13.298 11.006 13.503 C 11.006 13.729 10.819 13.898 10.612 13.898 L 9.58 13.898 L 9.58 14.629 L 11.794 16.842 C 11.944 16.993 11.944 17.255 11.794 17.406 C 11.719 17.481 11.607 17.518 11.512 17.518 C 11.419 17.518 11.306 17.481 11.231 17.406 L 9.562 15.735 L 9.562 17.123 C 9.562 17.349 9.374 17.518 9.168 17.518 C 8.943 17.537 8.774 17.349 8.774 17.143 Z" style="stroke: rgb(0, 0, 0);"/>
</svg>